<?xml version="1.0" standalone="no"?>
<!DOCTYPE svg PUBLIC "-//W3C//DTD SVG 1.1//EN" "http://www.w3.org/Graphics/SVG/1.1/DTD/svg11.dtd" >
<svg xmlns="http://www.w3.org/2000/svg">
<metadata></metadata>
<defs>
<font id="LeagueGothicRegular" horiz-adv-x="724" >
<font-face units-per-em="2048" ascent="1505" descent="-543" />
<missing-glyph horiz-adv-x="409" />
<glyph unicode="&#xfb01;" horiz-adv-x="772" d="M20 934v186h105v31q0 155 27 221q59 148 227 148q66 0 95.5 -6.5t51.5 -8.5v-184q-72 12 -108.5 12t-53 -21.5t-24.5 -51t-8 -61.5v-79h358v-1120h-207v934h-151v-934h-207v934h-105z" />
<glyph unicode="&#xfb02;" horiz-adv-x="772" d="M20 934v186h105v31q0 155 27 221q59 148 227 148q66 0 95.5 -6.5t51.5 -8.5h164v-1505h-207v1329q-28 4 -65 4t-53.5 -21.5t-24.5 -51t-8 -61.5v-79h104v-186h-104v-934h-207v934h-105z" />
<glyph horiz-adv-x="0" />
<glyph horiz-adv-x="2048" />
<glyph unicode="&#xd;" horiz-adv-x="409" />
<glyph unicode=" "  horiz-adv-x="409" />
<glyph unicode="&#x09;" horiz-adv-x="409" />
<glyph unicode="&#xa0;" horiz-adv-x="409" />
<glyph unicode="!" horiz-adv-x="387" d="M74 1505h239l-55 -1099h-129zM86 0v227h215v-227h-215z" />
<glyph unicode="&#x22;" horiz-adv-x="329" d="M57 1505h215l-30 -551h-154z" />
<glyph unicode="#" horiz-adv-x="1232" d="M49 438l27 195h198l37 258h-196l26 194h197l57 420h197l-57 -420h260l57 420h197l-58 -420h193l-27 -194h-192l-37 -258h190l-26 -195h-191l-59 -438h-197l60 438h-261l-59 -438h-197l60 438h-199zM471 633h260l37 258h-260z" />
<glyph unicode="$" horiz-adv-x="692" d="M37 358l192 13q10 -187 129 -187q68 0 88 115q5 33 5 73t-16.5 84t-42 87t-55.5 83t-60.5 81.5t-67.5 95t-67 109.5q-70 129 -70 243q0 201 111 293q42 35 104 49v131h123v-125q204 -20 235 -282l-192 -25q-6 51 -25.5 89t-67.5 36q-59 0 -78 -103q-6 -28 -6 -65 t16.5 -81t41.5 -86q26 -45 87 -128.5t97.5 -135.5t67.5 -108q69 -129 69 -243q0 -234 -129 -327q-47 -34 -116 -42v-217h-123v221q-180 32 -233 230q-15 59 -17 122z" />
<glyph unicode="%" horiz-adv-x="1001" d="M55 911v437q0 89 67 146q32 28 92 28q94 0 138 -88q18 -37 21 -86v-437q-4 -95 -68 -149q-31 -27 -91 -27q-100 0 -140 88q-18 37 -19 88zM158 0l553 1505h131l-547 -1505h-137zM178 911q-2 -16 2 -28q8 -27 35 -27q35 0 35 55v437q0 24 -10.5 39.5t-25.5 15.5 q-22 0 -30 -20.5t-6 -34.5v-437zM631 158v436q0 92 66 148q32 28 92.5 28t90.5 -28q64 -57 68 -148v-436q-4 -93 -67 -148q-31 -26 -91 -26q-97 0 -141 86q-18 37 -18 88zM754 158q-3 -26 8.5 -42t27.5 -16q35 0 35 58v436q0 25 -10 40t-25 15q-23 0 -30.5 -20t-5.5 -35 v-436z" />
<glyph unicode="&#x26;" horiz-adv-x="854" d="M49 311.5q0 130.5 53.5 237t116.5 203.5q-106 222 -106 442q4 178 111 276q55 52 159 52t159 -52q101 -95 105 -276q0 -98 -58.5 -207.5t-146.5 -226.5q80 -184 148 -285q27 78 47 211l176 -33q-21 -214 -92 -358q54 -61 92 -76v-235q-36 0 -106 51t-103 88 q-121 -139 -252 -139q-132 0 -218 99q-85 98 -85 228.5zM262 319.5q2 -59.5 29.5 -101.5t69.5 -42t69.5 24.5t56.5 61.5q-117 189 -174 295q-28 -47 -40.5 -112.5t-10.5 -125zM304 1183q2 -104 56 -235q101 156 101 252q4 79 -29 124q-16 22 -49 22q-56 0 -72 -76 q-8 -35 -7 -87z" />
<glyph unicode="'" horiz-adv-x="309" d="M45 1012l72 266h-72v227h215v-227l-113 -266h-102z" />
<glyph unicode="(" horiz-adv-x="561" d="M66 645q0 324 145 664q66 152 147 280l162 -84q-138 -198 -218 -511q-40 -156 -40 -349q0 -320 129 -620q55 -133 129 -238l-162 -84q-160 247 -247 579q-45 171 -45 363z" />
<glyph unicode=")" horiz-adv-x="561" d="M41 -213q72 104 124 229q134 320 134 629q0 305 -129 621q-57 133 -129 239l162 84q158 -255 247 -580q46 -171 46 -364q0 -316 -148 -663q-66 -152 -145 -279z" />
<glyph unicode="*" horiz-adv-x="677" d="M74 1251l43 148l164 -70l-19 176h154l-19 -176l164 70l43 -148l-172 -34l115 -138l-131 -80l-78 152l-76 -152l-131 80l115 138z" />
<glyph unicode="+" horiz-adv-x="1060" d="M74 649v172h370v346h172v-346h371v-172h-371v-346h-172v346h-370z" />
<glyph unicode="," horiz-adv-x="309" d="M45 0v227h215v-227l-113 -266h-102l72 266h-72z" />
<glyph unicode="-" horiz-adv-x="444" d="M74 455v194h297v-194h-297z" />
<glyph unicode="." horiz-adv-x="321" d="M53 0v227h215v-227h-215z" />
<glyph unicode="/" horiz-adv-x="720" d="M8 -147l543 1652h162l-537 -1652h-168z" />
<glyph unicode="0" d="M68 309v887q6 131 71 222q74 104 223 104q180 0 259 -164q33 -72 36 -162v-887q-8 -186 -125 -275q-64 -50 -170 -50q-150 0 -222 102q-21 29 -45 80t-27 143zM289 309q0 -110 73 -110q74 0 74 110v887q0 59 -22.5 85t-51.5 26q-49 0 -65 -56q-8 -25 -8 -55v-887z" />
<glyph unicode="1" horiz-adv-x="475" d="M25 1180v141q104 21 186 106q31 37 49 78h133v-1505h-221v1180h-147z" />
<glyph unicode="2" horiz-adv-x="731" d="M55 0v219q278 430 355 768q18 76 20 146q0 184 -73.5 184t-73.5 -184v-105h-222v105q0 177 58 270q74 119 237 119q158 0 233 -110q62 -91 62 -235.5t-38 -276.5t-92 -260q-85 -202 -216 -421h350v-219h-600z" />
<glyph unicode="3" horiz-adv-x="686" d="M53 434h217q0 -212 42 -244q14 -12 37.5 -12t37.5 17.5t21 44.5q8 36 8 119v144q0 131 -67 185q-36 29 -109 33v186l145 379h-311v219h536v-221l-178 -410q168 -77 194 -336q7 -75 7 -119t-2 -77t-11.5 -78t-27 -94t-48.5 -91q-72 -95 -187 -95t-173.5 46t-87.5 114 q-43 105 -43 290z" />
<glyph unicode="4" horiz-adv-x="684" d="M25 328v194l323 983h221v-983h103v-194h-103v-328h-202v328h-342zM213 522h154v516h-13z" />
<glyph unicode="5" horiz-adv-x="704" d="M74 438h221v-59q0 -115 14.5 -159t51 -44t53 43t16.5 158v336q0 47 -17.5 78.5t-44 31.5t-42 -12t-27.5 -29q-25 -37 -25 -69h-186v792h535v-219h-344v-313q72 56 127 51q86 0 135 -42t73 -95q37 -79 37 -174v-336q0 -160 -35.5 -234.5t-94 -116.5t-160 -42t-159 43 t-86.5 109q-42 100 -42 302z" />
<glyph unicode="6" horiz-adv-x="700" d="M66 309v856q0 138 34.5 206.5t92 109.5t161.5 41q177 0 248 -138q41 -80 41 -219v-94h-221q0 157 -8 195.5t-21.5 50.5t-46.5 12t-46 -39t-13 -125v-268q67 37 131.5 37t114 -38t73.5 -89q37 -76 37 -191v-307q0 -192 -130 -284q-58 -41 -159.5 -41t-159 41t-86.5 95 q-42 81 -42 189zM287 244q0 -14 14 -41t51 -27t53.5 26.5t16.5 41.5v450q0 14 -16.5 41t-51.5 27t-50 -22.5t-17 -39.5v-456z" />
<glyph unicode="7" horiz-adv-x="589" d="M8 1286v219h557v-221l-221 -1284h-229l225 1286h-332z" />
<glyph unicode="8" horiz-adv-x="696" d="M53 322v176q0 84 29 163.5t86 133.5q-102 102 -102 276v127q0 182 122 279q56 45 160 45q173 0 245 -148q38 -78 38 -176v-127q0 -175 -103 -276q57 -53 86 -133t29 -164v-176q0 -238 -173 -316q-50 -22 -122 -22q-128 0 -204 78q-91 94 -91 260zM269 416 q1 -129 16.5 -179.5t67.5 -50.5t63.5 60t11.5 179.5t-11 185t-69 65.5q-57 0 -68.5 -65.5t-10.5 -194.5zM284 1119q-1 -118 10 -172t54 -54t54.5 54t11.5 165.5t-11.5 163t-54.5 51.5q-37 0 -50 -45t-14 -163z" />
<glyph unicode="9" horiz-adv-x="700" d="M57 340v94h222q0 -157 8 -195t21.5 -50.5t46 -12.5t46 39t13.5 125v283q-67 -37 -132 -37t-114 38t-74 89q-37 78 -37 190v293q0 193 129 285q58 41 159 41t159.5 -41t87.5 -95q43 -81 43 -190v-856q0 -139 -35 -206.5t-92 -108.5t-162 -41q-177 0 -248 138 q-41 82 -41 218zM279 825q0 -14 16 -40.5t51 -26.5t50.5 22.5t17.5 38.5v443q0 14 -14.5 40.5t-51.5 26.5t-53 -26.5t-16 -40.5v-437z" />
<glyph unicode=":" horiz-adv-x="362" d="M74 0v227h215v-227h-215zM74 893v227h215v-227h-215z" />
<glyph unicode=";" horiz-adv-x="362" d="M74 0v227h215v-227l-113 -266h-102l71 266h-71zM74 893v227h215v-227h-215z" />
<glyph unicode="&#x3c;" horiz-adv-x="1058" d="M74 649v160l911 475v-199l-698 -356l698 -356v-199z" />
<glyph unicode="=" horiz-adv-x="1058" d="M74 477v172h911v-172h-911zM74 864v172h911v-172h-911z" />
<glyph unicode="&#x3e;" horiz-adv-x="1058" d="M74 174v199l698 356l-698 356v199l911 -475v-160z" />
<glyph unicode="?" horiz-adv-x="645" d="M25 1260q23 73 78 133.5t109 91.5t133 28.5t132 -36t81 -79.5q46 -76 46 -155t-23.5 -129.5t-49 -93.5t-47 -79t-40.5 -79q-43 -101 -43 -200v-256h-190v256q0 211 90 369q25 44 57.5 99.5t38.5 81t4 41t-9 30.5q-18 38 -52.5 38t-56 -16.5t-37.5 -40.5q-30 -41 -43 -88z M199 0v227h215v-227h-215z" />
<glyph unicode="@" horiz-adv-x="872" d="M66 303v889q0 109 74 202q103 128 300 128t300 -128q75 -94 75 -202v-793h-164l-20 56q-18 -36 -51 -52t-62 -16q-145 0 -145 172v485q0 170 145 170q46 0 74 -24t39 -43v45q0 50 -30 85q-61 73 -161 73t-152 -62q-38 -45 -38 -96v-889q0 -92 96 -136q37 -17 94 -17 q119 0 168 63l152 -86q-107 -143 -320 -143q-198 0 -300 124q-74 91 -74 195zM535 573q0 -53 48 -53t48 53v455q0 25 -13.5 39t-35.5 14q-47 0 -47 -53v-455z" />
<glyph unicode="A" horiz-adv-x="765" d="M20 0l228 1505h270l227 -1505h-215l-41 307h-213l-40 -307h-216zM307 541h152l-64 475l-6 80h-12l-6 -80z" />
<glyph unicode="B" horiz-adv-x="745" d="M82 0v1505h194q205 0 302 -88q102 -94 102 -311q0 -110 -22 -161q-37 -82 -115 -150q81 -45 129 -185q24 -71 24 -184q0 -412 -342 -426h-272zM303 219q14 0 42 1t55 22q67 49 67 209q0 159 -67 209q-27 20 -55 21t-42 1v-463zM303 885q64 0 95 21q69 46 69 179 q0 134 -67 179q-33 22 -97 22v-401z" />
<glyph unicode="C" horiz-adv-x="708" d="M68 309v887q6 131 71 222q74 104 223 104q180 0 259 -164q33 -72 36 -162v-207h-206v207q0 56 -25 83.5t-56 27.5q-50 0 -71 -56q-8 -25 -10 -55v-887q7 -110 78 -110q81 0 84 110v207h206v-207q-8 -186 -125 -275q-64 -50 -170 -50q-150 0 -222 102q-21 29 -45 80 t-27 143z" />
<glyph unicode="D" horiz-adv-x="761" d="M82 0v1505h174q154 0 242 -34.5t132 -120.5t55 -231.5t11 -366.5t-11 -365.5t-55 -230.5t-132 -121t-242 -35h-174zM303 221q57 0 91 13.5t50.5 67.5t19.5 160.5t3 291.5q0 184 -3 289.5t-19.5 159.5t-50.5 67.5t-91 13.5v-1063z" />
<glyph unicode="E" horiz-adv-x="628" d="M82 0v1505h506v-227h-285v-395h205v-242h-205v-414h285v-227h-506z" />
<glyph unicode="F" horiz-adv-x="616" d="M82 0v1505h526v-227h-305v-395h205v-228h-205v-655h-221z" />
<glyph unicode="G" horiz-adv-x="737" d="M68 309v887q6 131 71 222q74 104 223 104q180 0 259 -164q33 -72 36 -162v-231h-221v231q0 59 -22.5 85t-51.5 26q-49 0 -65 -56q-8 -25 -8 -55v-905q0 -63 22.5 -87t50.5 -24q74 0 74 111v272h-88v187h309v-750h-131l-26 72q-70 -88 -172 -88q-172 0 -236 161 q-24 65 -24 146v18z" />
<glyph unicode="H" horiz-adv-x="778" d="M82 0v1505h221v-622h172v622h221v-1505h-221v655h-172v-655h-221z" />
<glyph unicode="I" horiz-adv-x="385" d="M82 0v1505h221v-1505h-221z" />
<glyph unicode="J" horiz-adv-x="423" d="M12 -14v217q11 -1 20 -1q53 0 81 36q18 24 18 75v1192h221v-1226q0 -216 -176 -277q-51 -17 -123 -17q-20 0 -41 1z" />
<glyph unicode="K" horiz-adv-x="768" d="M82 0v1505h221v-567h8l11 66l184 501h215l-203 -495l230 -1010h-216l-153 655l-6 31h-6l-64 -154v-532h-221z" />
<glyph unicode="L" horiz-adv-x="604" d="M82 0v1505h221v-1300h293v-205h-514z" />
<glyph unicode="M" horiz-adv-x="991" d="M82 0v1505h270l131 -688l11 -80h4l10 80l131 688h270v-1505h-204v1010h-13l-149 -1010h-94l-142 946l-8 64h-12v-1010h-205z" />
<glyph unicode="N" horiz-adv-x="808" d="M82 0v1505h197l215 -784l18 -70h12v854h203v-1505h-197l-215 784l-18 70h-12v-854h-203z" />
<glyph unicode="O" d="M68 309v887q6 131 71 222q74 104 223 104q180 0 259 -164q33 -72 36 -162v-887q-8 -186 -125 -275q-64 -50 -170 -50q-150 0 -222 102q-21 29 -45 80t-27 143zM289 309q0 -110 73 -110q74 0 74 110v887q0 59 -22.5 85t-51.5 26q-49 0 -65 -56q-8 -25 -8 -55v-887z" />
<glyph unicode="P" horiz-adv-x="720" d="M82 0v1505h221q265 0 355 -234q34 -87 34 -216q0 -240 -122 -355q-104 -98 -267 -98v-602h-221zM303 827q102 0 135 47q31 42 31 173q0 133 -24.5 169.5t-57.5 50t-84 13.5v-453z" />
<glyph unicode="Q" horiz-adv-x="729" d="M68 309v887q6 131 71 222q74 104 223 104q180 0 259 -164q33 -72 36 -162v-887q0 -95 -45 -182q33 -43 88 -53v-189q-155 0 -227 117q-52 -18 -109 -18t-100 13t-74 37q-50 38 -84.5 110.5t-37.5 164.5zM289 309q0 -110 73 -110q74 0 74 110v887q0 59 -22.5 85t-51.5 26 q-49 0 -65 -56q-8 -25 -8 -55v-887z" />
<glyph unicode="R" horiz-adv-x="739" d="M82 0v1505h221q199 0 288 -110.5t89 -323.5q0 -113 -29.5 -206t-93.5 -136l141 -729h-221l-115 635h-59v-635h-221zM303 840q69 0 99 26q65 58 65 197t-59 191q-36 32 -105 32v-446z" />
<glyph unicode="S" horiz-adv-x="702" d="M37 422l217 20q0 -120 14.5 -165.5t35 -68t54.5 -22.5q91 0 91 166q0 64 -42 136.5t-74 118.5t-67 98t-71.5 109.5t-64.5 115.5q-62 130 -62 239q0 229 156 319q56 32 144 34h8q83 0 141 -36q61 -38 93 -98q56 -104 56 -266l-217 -20q0 217 -89 217q-75 -3 -75 -150 q0 -66 40 -135q54 -93 113.5 -178.5t96 -143t65.5 -114.5q66 -130 66 -236q0 -378 -308 -378q-193 0 -267 134q-54 98 -54 304z" />
<glyph unicode="T" horiz-adv-x="647" d="M4 1278v227h639v-227h-209v-1278h-221v1278h-209z" />
<glyph unicode="U" horiz-adv-x="749" d="M80 309v1196h221v-1196q0 -110 74 -110q71 0 74 110v1196h221v-1196q-8 -185 -126 -275q-64 -50 -169 -50q-151 0 -223 102q-66 93 -72 223z" />
<glyph unicode="V" horiz-adv-x="716" d="M18 1505h215l111 -827l8 -105h13l8 105l110 827h215l-229 -1505h-221z" />
<glyph unicode="W" horiz-adv-x="1036" d="M25 1505h204l88 -782l5 -49h16l100 831h160l100 -831h17l92 831h205l-203 -1505h-172l-115 801h-8l-115 -801h-172z" />
<glyph unicode="X" horiz-adv-x="737" d="M16 0l244 791l-240 714h218l120 -381l7 -18h8l127 399h217l-240 -714l244 -791h-217l-127 449l-4 18h-8l-132 -467h-217z" />
<glyph unicode="Y" horiz-adv-x="700" d="M14 1505h217l111 -481l6 -55h4l6 55l111 481h217l-225 -864v-641h-221v641z" />
<glyph unicode="Z" horiz-adv-x="626" d="M20 0v238l347 1048h-297v219h536v-219l-352 -1067h352v-219h-586z" />
<glyph unicode="[" horiz-adv-x="538" d="M82 -213v1718h399v-196h-202v-1325h202v-197h-399z" />
<glyph unicode="\" horiz-adv-x="792" d="M8 1692h162l614 -1872h-168z" />
<glyph unicode="]" horiz-adv-x="538" d="M57 -16h203v1325h-203v196h400v-1718h-400v197z" />
<glyph unicode="^" horiz-adv-x="1101" d="M53 809l381 696h234l381 -696h-199l-299 543l-299 -543h-199z" />
<glyph unicode="_" horiz-adv-x="1210" d="M74 -154h1063v-172h-1063v172z" />
<glyph unicode="`" horiz-adv-x="1024" d="M293 1489h215l106 -184h-159z" />
<glyph unicode="a" horiz-adv-x="681" d="M49 260q0 235 166 352q43 31 82 51.5t65.5 36t32.5 31.5v123q0 72 -18.5 87t-42 15t-35.5 -17t-16 -42t-4 -53v-53h-207v47q0 122 80 211q78 88 198 88q102 0 176 -73q76 -74 76 -181v-688q0 -109 14 -195h-202q-19 22 -19 90h-14q-39 -67 -107 -95q-28 -11 -53.5 -11 t-54.5 10t-54 40q-63 72 -63 226zM252 299.5q0 -71.5 19.5 -92.5t46 -21t52 19.5t25.5 48.5v287q-76 -33 -109.5 -101.5t-33.5 -140z" />
<glyph unicode="b" horiz-adv-x="686" d="M82 0v1505h207v-458q97 90 164 90q76 0 121 -75q38 -62 38 -144v-715q0 -134 -86 -197q-30 -22 -73 -22q-70 0 -164 90v-74h-207zM289 246q0 -29 19.5 -48.5t41.5 -19.5q23 0 39.5 19.5t16.5 48.5v628q0 29 -16.5 48.5t-39.5 19.5t-42 -21.5t-19 -46.5v-628z" />
<glyph unicode="c" horiz-adv-x="645" d="M66 315v490q0 332 264 332q136 0 198 -68q68 -76 68 -254v-88h-207v135q0 51 -12 70.5t-50 19.5t-46.5 -29.5t-8.5 -60.5v-604q0 -31 8.5 -60.5t46.5 -29.5t50 19.5t12 70.5v156h207v-109q0 -260 -152 -306q-49 -15 -109 -15t-109.5 16t-84.5 55q-75 84 -75 260z" />
<glyph unicode="d" horiz-adv-x="686" d="M74 203v715q0 134 86 198q30 21 73 21q70 0 164 -90v458h207v-1505h-207v74q-97 -90 -164 -90q-75 0 -121 74q-38 61 -38 145zM281 246q0 -29 16 -48.5t39 -19.5t42 19.5t19 48.5v628q0 25 -19.5 46.5t-41.5 21.5q-23 0 -39 -19.5t-16 -48.5v-628z" />
<glyph unicode="e" horiz-adv-x="659" d="M66 279v563q8 158 113 248q54 47 155 47q100 0 154 -47q104 -88 112 -242v-326h-342v-243q7 -113 76 -113q71 0 74 113v122h192v-129q-8 -157 -113 -243q-55 -45 -155 -45t-154 46q-106 89 -112 249zM258 684h150v158q0 64 -23 89t-51 25q-69 0 -76 -114v-158z" />
<glyph unicode="f" horiz-adv-x="475" d="M20 934v186h105v31q0 147 25.5 215t73.5 107.5t138 39.5q48 0 72 -8l25 -6v-178q-40 8 -62 8q-65 0 -65 -131v-78h104v-186h-104v-934h-207v934h-105z" />
<glyph unicode="g" horiz-adv-x="700" d="M12 -200.5q0 45.5 14.5 70t37.5 46.5q30 29 110 70q-51 14 -88 49t-37 100q0 68 85 137q22 19 44 31q-100 64 -119 244v305q12 153 113 240q53 45 150 45q136 0 206 -103q103 103 170 103v-185q-77 0 -120 -24q10 -40 10 -70v-317q-8 -151 -116 -235q-54 -42 -150 -42 h-20q-9 0 -19 2q-29 -25 -29 -47t14.5 -33.5t37.5 -18.5q26 -8 90.5 -18t114.5 -24t92 -43q95 -66 95 -197q0 -150 -113 -225q-92 -61 -241 -61q-247 7 -308 114q-24 41 -24 86.5zM213 -150q0 -33 31.5 -55t81 -22t77 4t49.5 13q54 21 54 58q0 32 -14 45q-27 24 -97 35 l-106 21q-76 -41 -76 -99zM262 537q-1 -10 -1 -18q0 -42 17 -61q19 -22 44 -22q63 0 63 101v307q0 53 -18.5 77.5t-44 24.5t-38.5 -16q-23 -28 -23 -72q0 -7 1 -14v-307z" />
<glyph unicode="h" horiz-adv-x="690" d="M82 0v1505h207v-479q6 4 23.5 21.5t39.5 38.5q57 51 101.5 51t74 -21.5t48.5 -53.5q36 -63 36 -144v-918h-206v887q0 33 -16 41t-34 8q-37 0 -67 -53v-883h-207z" />
<glyph unicode="i" horiz-adv-x="370" d="M82 0v1120h207v-1120h-207zM82 1298v207h207v-207h-207z" />
<glyph unicode="j" horiz-adv-x="364" d="M-45 -182v-191q24 -12 101 -12t126 39t70 95q31 79 31 222v1149h-207v-1194q0 -116 -64 -116q-17 0 -57 8zM76 1298v207h207v-207h-207z" />
<glyph unicode="k" horiz-adv-x="641" d="M82 0v1505h207v-714h10l113 329h186l-149 -364l188 -756h-199l-102 453l-4 16h-10l-33 -82v-387h-207z" />
<glyph unicode="l" horiz-adv-x="370" d="M82 0v1505h207v-1505h-207z" />
<glyph unicode="m" horiz-adv-x="1021" d="M82 0v1120h207v-94q6 4 23.5 21.5t41.5 38.5q62 51 112 51t84 -38t50 -87q12 8 32.5 29.5t46.5 42.5q68 53 109 53t71 -21.5t49 -53.5q36 -63 36 -144v-918h-194v887q0 49 -56 49q-36 0 -78 -53v-883h-194v887q0 49 -55 49q-40 0 -78 -53v-883h-207z" />
<glyph unicode="n" horiz-adv-x="690" d="M82 0v1120h207v-94q6 4 23.5 21.5t39.5 38.5q57 51 101.5 51t74 -21.5t48.5 -53.5q36 -63 36 -144v-918h-206v887q0 33 -16 41t-34 8q-37 0 -67 -53v-883h-207z" />
<glyph unicode="o" horiz-adv-x="657" d="M63 279v563q8 158 111 248q53 47 154 47q100 0 154 -47q104 -88 112 -242v-576q-8 -156 -112 -243q-54 -45 -154 -45t-154 46q-103 89 -111 249zM258 279q-1 -10 -1 -18q-1 -49 19 -71q22 -24 52 -24q50 0 65 55q6 20 6 45v13v563q1 9 1 18q0 48 -20 70q-24 26 -52 26 q-49 0 -64 -57q-6 -20 -6 -44v-13v-563z" />
<glyph unicode="p" horiz-adv-x="686" d="M82 -385v1505h207v-73q97 90 164 90q76 0 121 -75q38 -62 38 -144v-715q0 -134 -86 -197q-30 -22 -73 -22q-70 0 -164 90v-459h-207zM289 246q0 -25 19.5 -46.5t41.5 -21.5q23 0 39.5 19.5t16.5 48.5v628q0 29 -16.5 48.5t-39.5 19.5t-42 -19.5t-19 -48.5v-628z" />
<glyph unicode="q" horiz-adv-x="686" d="M74 203v715q0 134 86 198q30 21 73 21q70 0 164 -90v73h207v-1505h-207v459q-97 -90 -164 -90q-75 0 -121 74q-38 61 -38 145zM281 246q0 -29 16 -48.5t39 -19.5t42 21.5t19 46.5v628q0 29 -19.5 48.5t-41.5 19.5q-23 0 -39 -19.5t-16 -48.5v-628z" />
<glyph unicode="r" horiz-adv-x="503" d="M82 0v1120h207v-125q15 77 111 123q38 19 96 19v-230q-29 8 -56 8q-69 0 -102 -29q-49 -44 -49 -108v-778h-207z" />
<glyph unicode="s" horiz-adv-x="630" d="M37 326h192q0 -106 45 -152q19 -18 58 -18q65 0 65 135q0 51 -41 101t-83 91t-76.5 76t-62.5 76q-62 91 -62 199q0 196 129 272q49 29 131 31h10q75 0 125 -28q53 -30 79 -75q42 -70 42 -200h-193q0 131 -67 131q-34 0 -52 -45q-12 -29 -12 -71t12.5 -68.5t31.5 -50.5 q40 -51 82 -90.5t77 -76.5t61 -79q62 -97 62 -193q0 -199 -140 -279q-51 -28 -134.5 -28t-141 36.5t-88.5 89.5q-49 82 -49 216z" />
<glyph unicode="t" horiz-adv-x="501" d="M20 934v186h105v277h207v-277h141v-186h-141v-557q0 -126 28 -165q13 -19 31 -19q36 0 53 3t29 5v-203q-49 -14 -125 -14t-124 39.5t-70 98.5q-29 80 -29 238v574h-105z" />
<glyph unicode="u" horiz-adv-x="690" d="M78 203v917h207v-887q0 -33 15.5 -41t32.5 -8q23 0 50 27q10 10 18 27v882h207v-1120h-207v94q-6 -4 -23.5 -21.5t-39.5 -38.5q-56 -50 -101 -50t-74.5 21.5t-48.5 52.5q-36 63 -36 145z" />
<glyph unicode="v" horiz-adv-x="602" d="M16 1120h201l68 -649l8 -72h16l76 721h201l-183 -1120h-204z" />
<glyph unicode="w" horiz-adv-x="905" d="M20 1120h189l65 -585l9 -64h12l96 649h123l86 -585l10 -64h13l73 649h189l-166 -1120h-172l-80 535l-10 63h-8l-91 -598h-172z" />
<glyph unicode="x" horiz-adv-x="618" d="M16 0l193 578l-176 542h194l74 -262l6 -31h4l6 31l74 262h195l-176 -542l192 -578h-201l-84 283l-6 30h-4l-6 -30l-84 -283h-201z" />
<glyph unicode="y" horiz-adv-x="634" d="M25 1120h202l82 -688l4 -57h9l4 57l82 688h202l-198 -1204q-17 -127 -90 -217q-82 -100 -197 -100h-25q-14 0 -31 1t-36 3v184q8 -4 45 -3t61.5 19.5t40.5 44.5q35 53 35 119z" />
<glyph unicode="z" horiz-adv-x="532" d="M12 0v168l285 764h-240v188h459v-168l-285 -764h285v-188h-504z" />
<glyph unicode="{" horiz-adv-x="688" d="M61 453v163q72 0 107 58q25 42 25 82v397q0 223 99 301q92 72 339 68v-172q-139 0 -187 -38q-55 -43 -55 -159v-397q0 -145 -127 -221q59 -39 93 -90.5t34 -131.5v-397q0 -116 55 -160q48 -37 187 -37v-172q-247 -4 -339 68q-99 78 -99 301v397q0 36 -19 68 q-41 68 -113 72z" />
<glyph unicode="|" horiz-adv-x="356" d="M82 -512v2204h192v-2204h-192z" />
<glyph unicode="}" horiz-adv-x="688" d="M57 -281q139 0 187 37q55 44 55 160v397q0 80 34 131.5t93 90.5q-59 37 -93 88t-34 133v397q0 116 -55 159q-48 38 -187 38v172q247 4 339 -68q100 -78 100 -301v-397q0 -78 64 -122q26 -18 67 -18v-163q-70 -3 -107 -63q-24 -39 -24 -77v-397q0 -223 -100 -301 q-92 -72 -339 -68v172z" />
<glyph unicode="~" horiz-adv-x="1280" d="M113 1352q54 161 181 258q64 49 155.5 49t154 -33t112.5 -66t93 -54t90 -21q119 0 191 182l135 -57q-64 -170 -181 -262q-61 -48 -146 -48t-148.5 31t-114.5 65t-95 56.5t-94 22.5q-89 0 -151 -91q-29 -39 -47 -90z" />
<glyph unicode="&#xa1;" horiz-adv-x="387" d="M74 -385h239l-55 1099h-129zM86 893h215v227h-215v-227z" />
<glyph unicode="&#xa2;" horiz-adv-x="636" d="M66 508v489q0 164 58 239t150 89v242h123v-244q99 -17 143 -86q48 -76 48 -229v-88h-189v135q0 90 -73 90q-41 0 -56.5 -30t-15.5 -60v-604q0 -31 15.5 -61t53.5 -30t57 19.5t19 71.5v155h189v-108q0 -160 -48 -231.5t-143 -86.5v-303h-123v301q-92 14 -150 89t-58 241z " />
<glyph unicode="&#xa3;" horiz-adv-x="817" d="M4 63q47 105 119 169q39 34 92 44q37 109 37 192.5t-31 180.5h-188v137h147l-6 21q-29 96 -53.5 187t-24.5 155q0 243 155 337q56 34 148 36t157 -33t102 -91q65 -102 65 -278h-213q0 197 -115 197q-44 0 -71 -55q-19 -42 -19 -119q0 -109 70 -332l6 -25h211v-137h-174 q25 -102 24.5 -189.5t-57.5 -203.5q39 -18 68.5 -37.5t64.5 -21.5q29 2 53.5 44t28.5 146l188 -22q-12 -188 -82.5 -284.5t-168.5 -96.5q-48 0 -113.5 34.5t-98 51t-61.5 16.5q-43 0 -86 -51q-18 -23 -28 -51z" />
<glyph unicode="&#xa5;" horiz-adv-x="720" d="M25 1505h217l110 -481l6 -55h4l7 55l110 481h217l-196 -753h147v-138h-176v-137h176v-137h-176v-340h-221v340h-176v137h176v137h-176v138h147z" />
<glyph unicode="&#xa8;" horiz-adv-x="1024" d="M272 1305v200h191v-200h-191zM561 1305v200h191v-200h-191z" />
<glyph unicode="&#xa9;" horiz-adv-x="1644" d="M53 753q0 159 60.5 299t165 244.5t245 165t299 60.5t299 -60.5t244.5 -165t164.5 -245t60.5 -299t-60.5 -299t-164.5 -245t-244.5 -164.5t-299.5 -60t-299 60t-244.5 164.5t-165 245t-60.5 299.5zM172 752q0 -133 51 -251t141 -207q193 -192 457 -192q133 0 252 51.5 t208 140.5q192 192 192 458q0 133 -51.5 251.5t-140.5 207.5t-208 140.5t-252 51.5q-264 0 -457 -192q-90 -89 -141 -207.5t-51 -251.5zM627 487v531q0 104 79 166q39 30 112 30q117 0 165 -98q20 -43 25 -98v-125h-138v125q4 31 -12 47t-36 16q-33 0 -44 -32q-6 -14 -6 -31 v-531q0 -35 15.5 -49t34.5 -14q34 0 44 31q6 14 4 32v125h138v-125q-8 -106 -80 -165q-37 -31 -110 -31q-119 0 -169 98q-23 43 -22 98z" />
<glyph unicode="&#xab;" horiz-adv-x="737" d="M80 586l180 585h217l-180 -585l180 -586h-217zM383 586l90 293h191l-91 -293l91 -293h-191z" />
<glyph unicode="&#xad;" horiz-adv-x="444" d="M74 455v194h297v-194h-297z" />
<glyph unicode="&#xae;" horiz-adv-x="1644" d="M53 753q0 159 60.5 299t165 244.5t245 165t299 60.5t299 -60.5t244.5 -165t164.5 -245t60.5 -299t-60.5 -299t-164.5 -245t-244.5 -164.5t-299.5 -60t-299 60t-244.5 164.5t-165 245t-60.5 299.5zM172 752q0 -133 51 -251t141 -207q193 -192 457 -192q133 0 252 51.5 t208 140.5q192 192 192 458q0 133 -51.5 251.5t-140.5 207.5t-208 140.5t-252 51.5q-264 0 -457 -192q-90 -89 -141 -207.5t-51 -251.5zM625 313v879h196q232 0 232 -258q0 -66 -13.5 -118t-74.5 -103l106 -400h-151l-95 365h-55v-365h-145zM770 805h45q84 0 95 81 q3 23 3 46q0 91 -45 118q-20 13 -53 13h-45v-258z" />
<glyph unicode="&#xaf;" horiz-adv-x="1024" d="M313 1315v162h398v-162h-398z" />
<glyph unicode="&#xb4;" horiz-adv-x="1024" d="M410 1305l106 184h215l-162 -184h-159z" />
<glyph unicode="&#xb7;" horiz-adv-x="215" d="M0 649v228h215v-228h-215z" />
<glyph unicode="&#xb8;" horiz-adv-x="1024" d="M426 -111h172v-141l-45 -133h-104l40 133h-63v141z" />
<glyph unicode="&#xbb;" horiz-adv-x="737" d="M80 293l90 293l-90 293h190l90 -293l-90 -293h-190zM266 0l180 586l-180 585h217l181 -585l-181 -586h-217z" />
<glyph unicode="&#xbf;" horiz-adv-x="645" d="M41 -123q0 79 23.5 129.5t49 93.5t47 79t40.5 79q43 101 43 200v256h190v-256q0 -211 -90 -369q-25 -44 -57.5 -99.5t-38.5 -81t-4 -41t9 -30.5q18 -38 52.5 -38t56 16.5t37.5 40.5q30 41 43 88l178 -84q-23 -73 -78 -133.5t-109 -91.5t-133 -28.5t-132 36t-81 79.5 q-46 76 -46 155zM231 893v227h215v-227h-215z" />
<glyph unicode="&#xc0;" horiz-adv-x="765" d="M20 0l228 1505h270l227 -1505h-215l-41 307h-213l-40 -307h-216zM143 1823h215l106 -184h-159zM307 541h152l-64 475l-6 80h-12l-6 -80z" />
<glyph unicode="&#xc1;" horiz-adv-x="765" d="M20 0l228 1505h270l227 -1505h-215l-41 307h-213l-40 -307h-216zM295 1639l106 184h215l-162 -184h-159zM307 541h152l-64 475l-6 80h-12l-6 -80z" />
<glyph unicode="&#xc2;" horiz-adv-x="765" d="M20 0l228 1505h270l227 -1505h-215l-41 307h-213l-40 -307h-216zM135 1639l141 184h220l141 -184h-189l-63 71l-61 -71h-189zM307 541h152l-64 475l-6 80h-12l-6 -80z" />
<glyph unicode="&#xc3;" horiz-adv-x="765" d="M20 0l228 1505h270l227 -1505h-215l-41 307h-213l-40 -307h-216zM186 1633v151q55 39 105.5 39t93.5 -17.5t90 -19.5t109 31v-152q-45 -39 -100.5 -39t-97.5 18.5t-91 19.5t-109 -31zM307 541h152l-64 475l-6 80h-12l-6 -80z" />
<glyph unicode="&#xc4;" horiz-adv-x="765" d="M20 0l228 1505h270l227 -1505h-215l-41 307h-213l-40 -307h-216zM145 1639v200h191v-200h-191zM307 541h152l-64 475l-6 80h-12l-6 -80zM434 1639v200h191v-200h-191z" />
<glyph unicode="&#xc5;" horiz-adv-x="765" d="M20 0l228 1505h270l227 -1505h-215l-41 307h-213l-40 -307h-216zM233 1761q0 63 45.5 103.5t108.5 40.5t107.5 -40t44.5 -104q0 -63 -44.5 -103t-107.5 -40t-108.5 40t-45.5 103zM307 541h152l-64 475l-6 80h-12l-6 -80zM311 1761q0 -29 23.5 -50t52.5 -21t52.5 21.5 t23.5 49.5q0 29 -23.5 50.5t-52.5 21.5t-52.5 -21.5t-23.5 -50.5z" />
<glyph unicode="&#xc6;" horiz-adv-x="1099" d="M16 0l420 1505h623v-227h-285v-395h205v-242h-205v-414h285v-227h-506v307h-227l-90 -307h-220zM393 541h160v514h-10z" />
<glyph unicode="&#xc7;" horiz-adv-x="708" d="M68 309v887q6 131 71 222q74 104 223 104q180 0 259 -164q33 -72 36 -162v-207h-206v207q0 56 -25 83.5t-56 27.5q-50 0 -71 -56q-8 -25 -10 -55v-887q7 -110 78 -110q81 0 84 110v207h206v-207q-8 -186 -125 -275q-64 -50 -170 -50q-150 0 -222 102q-21 29 -45 80 t-27 143zM270 -111h172v-141l-45 -133h-104l40 133h-63v141z" />
<glyph unicode="&#xc8;" horiz-adv-x="628" d="M82 0v1505h506v-227h-285v-395h205v-242h-205v-414h285v-227h-506zM113 1823h215l106 -184h-159z" />
<glyph unicode="&#xc9;" horiz-adv-x="628" d="M82 0v1505h506v-227h-285v-395h205v-242h-205v-414h285v-227h-506zM238 1639l106 184h215l-162 -184h-159z" />
<glyph unicode="&#xca;" horiz-adv-x="628" d="M82 0v1505h506v-227h-285v-395h205v-242h-205v-414h285v-227h-506zM86 1639l141 184h220l141 -184h-189l-63 71l-61 -71h-189z" />
<glyph unicode="&#xcb;" horiz-adv-x="628" d="M82 0v1505h506v-227h-285v-395h205v-242h-205v-414h285v-227h-506zM96 1639v200h191v-200h-191zM385 1639v200h191v-200h-191z" />
<glyph unicode="&#xcc;" horiz-adv-x="401" d="M-4 1823h215l106 -184h-159zM98 0v1505h221v-1505h-221z" />
<glyph unicode="&#xcd;" horiz-adv-x="401" d="M82 0v1505h221v-1505h-221zM88 1639l106 184h215l-162 -184h-159z" />
<glyph unicode="&#xce;" horiz-adv-x="370" d="M-64 1639l141 184h220l141 -184h-189l-63 71l-61 -71h-189zM76 0v1505h221v-1505h-221z" />
<glyph unicode="&#xcf;" horiz-adv-x="372" d="M-52 1639v200h191v-200h-191zM78 0v1505h221v-1505h-221zM237 1639v200h191v-200h-191z" />
<glyph unicode="&#xd0;" horiz-adv-x="761" d="M20 655v228h62v622h174q154 0 242 -34.5t132 -120.5t55 -231.5t11 -366.5t-11 -365.5t-55 -230.5t-132 -121t-242 -35h-174v655h-62zM303 221q57 0 91 13.5t50.5 67.5t19.5 160.5t3 291.5q0 184 -3 289.5t-19.5 159.5t-50.5 67.5t-91 13.5v-401h84v-228h-84v-434z" />
<glyph unicode="&#xd1;" horiz-adv-x="808" d="M82 0v1505h197l215 -784l18 -70h12v854h203v-1505h-197l-215 784l-18 70h-12v-854h-203zM209 1633v151q55 39 105.5 39t93.5 -17.5t90 -19.5t109 31v-152q-45 -39 -100.5 -39t-97.5 18.5t-91 19.5t-109 -31z" />
<glyph unicode="&#xd2;" d="M68 309v887q6 131 71 222q74 104 223 104q180 0 259 -164q33 -72 36 -162v-887q-8 -186 -125 -275q-64 -50 -170 -50q-150 0 -222 102q-21 29 -45 80t-27 143zM123 1823h215l106 -184h-159zM289 309q0 -110 73 -110q74 0 74 110v887q0 59 -22.5 85t-51.5 26 q-49 0 -65 -56q-8 -25 -8 -55v-887z" />
<glyph unicode="&#xd3;" d="M68 309v887q6 131 71 222q74 104 223 104q180 0 259 -164q33 -72 36 -162v-887q-8 -186 -125 -275q-64 -50 -170 -50q-150 0 -222 102q-21 29 -45 80t-27 143zM287 1639l106 184h215l-162 -184h-159zM289 309q0 -110 73 -110q74 0 74 110v887q0 59 -22.5 85t-51.5 26 q-49 0 -65 -56q-8 -25 -8 -55v-887z" />
<glyph unicode="&#xd4;" d="M68 309v887q6 131 71 222q74 104 223 104q180 0 259 -164q33 -72 36 -162v-887q-8 -186 -125 -275q-64 -50 -170 -50q-150 0 -222 102q-21 29 -45 80t-27 143zM115 1639l141 184h220l141 -184h-189l-63 71l-61 -71h-189zM289 309q0 -110 73 -110q74 0 74 110v887 q0 59 -22.5 85t-51.5 26q-49 0 -65 -56q-8 -25 -8 -55v-887z" />
<glyph unicode="&#xd5;" d="M68 309v887q6 131 71 222q74 104 223 104q180 0 259 -164q33 -72 36 -162v-887q-8 -186 -125 -275q-64 -50 -170 -50q-150 0 -222 102q-21 29 -45 80t-27 143zM166 1633v151q55 39 105.5 39t93.5 -17.5t90 -19.5t109 31v-152q-45 -39 -100.5 -39t-97.5 18.5t-91 19.5 t-109 -31zM289 309q0 -110 73 -110q74 0 74 110v887q0 59 -22.5 85t-51.5 26q-49 0 -65 -56q-8 -25 -8 -55v-887z" />
<glyph unicode="&#xd6;" d="M68 309v887q6 131 71 222q74 104 223 104q180 0 259 -164q33 -72 36 -162v-887q-8 -186 -125 -275q-64 -50 -170 -50q-150 0 -222 102q-21 29 -45 80t-27 143zM125 1639v200h191v-200h-191zM289 309q0 -110 73 -110q74 0 74 110v887q0 59 -22.5 85t-51.5 26 q-49 0 -65 -56q-8 -25 -8 -55v-887zM414 1639v200h191v-200h-191z" />
<glyph unicode="&#xd7;" horiz-adv-x="1060" d="M164 489l246 246l-246 246l121 121l245 -246l246 246l121 -121l-246 -246l246 -246l-121 -120l-246 245l-245 -245z" />
<glyph unicode="&#xd8;" d="M59 -20l47 157q-38 74 -38 172v887q6 131 71 222q74 104 223 104q91 0 158 -43l15 47h122l-45 -150q45 -93 45 -180v-887q-8 -186 -125 -275q-64 -50 -168 -50t-161 43l-15 -47h-129zM289 309q0 -110 73 -110q74 0 74 110v488zM289 727l147 479q0 59 -34 88 q-15 13 -42 13q-47 0 -63 -56q-8 -25 -8 -55v-469z" />
<glyph unicode="&#xd9;" horiz-adv-x="749" d="M80 309v1196h221v-1196q0 -110 74 -110q71 0 74 110v1196h221v-1196q-8 -185 -126 -275q-64 -50 -169 -50q-151 0 -223 102q-66 93 -72 223zM148 1823h215l106 -184h-159z" />
<glyph unicode="&#xda;" horiz-adv-x="749" d="M80 309v1196h221v-1196q0 -110 74 -110q71 0 74 110v1196h221v-1196q-8 -185 -126 -275q-64 -50 -169 -50q-151 0 -223 102q-66 93 -72 223zM310 1639l106 184h215l-162 -184h-159z" />
<glyph unicode="&#xdb;" horiz-adv-x="749" d="M80 309v1196h221v-1196q0 -110 74 -110q71 0 74 110v1196h221v-1196q-8 -185 -126 -275q-64 -50 -169 -50q-151 0 -223 102q-66 93 -72 223zM127 1639l141 184h220l141 -184h-189l-63 71l-61 -71h-189z" />
<glyph unicode="&#xdc;" horiz-adv-x="749" d="M80 309v1196h221v-1196q0 -110 74 -110q71 0 74 110v1196h221v-1196q-8 -185 -126 -275q-64 -50 -169 -50q-151 0 -223 102q-66 93 -72 223zM137 1639v200h191v-200h-191zM426 1639v200h191v-200h-191z" />
<glyph unicode="&#xdd;" horiz-adv-x="704" d="M16 1505h217l111 -481l6 -55h4l6 55l111 481h217l-225 -864v-641h-221v641zM256 1639l106 184h215l-162 -184h-159z" />
<glyph unicode="&#xde;" d="M82 0v1505h219v-241h2q265 0 355 -235q34 -87 34 -216q0 -240 -122 -355q-105 -98 -267 -98v-360h-221zM303 586q102 0 135 46q31 42 31 173q0 133 -24.5 170t-57.5 50t-84 13v-452z" />
<glyph unicode="&#xdf;" horiz-adv-x="733" d="M66 0v1235q0 194 154 263q52 24 124 24t123 -22.5t84 -61.5q65 -77 65 -192.5t-88 -182.5q152 -87 152 -488q0 -351 -86 -475q-43 -61 -105.5 -80.5t-142.5 -19.5v193q31 0 55.5 13t40.5 54q31 83 31 264.5t-8 260.5t-23 122q-26 72 -96 72v141q35 0 60.5 32t25.5 79 q0 106 -86 106q-39 0 -56.5 -30.5t-17.5 -71.5v-1235h-206z" />
<glyph unicode="&#xe0;" horiz-adv-x="681" d="M49 260q0 235 166 352q43 31 82 51.5t65.5 36t32.5 31.5v123q0 72 -18.5 87t-42 15t-35.5 -17t-16 -42t-4 -53v-53h-207v47q0 122 80 211q78 88 198 88q102 0 176 -73q76 -74 76 -181v-688q0 -109 14 -195h-202q-19 22 -19 90h-14q-39 -67 -107 -95q-28 -11 -53.5 -11 t-54.5 10t-54 40q-63 72 -63 226zM105 1489h215l106 -184h-159zM252 299.5q0 -71.5 19.5 -92.5t46 -21t52 19.5t25.5 48.5v287q-76 -33 -109.5 -101.5t-33.5 -140z" />
<glyph unicode="&#xe1;" horiz-adv-x="681" d="M49 260q0 235 166 352q43 31 82 51.5t65.5 36t32.5 31.5v123q0 72 -18.5 87t-42 15t-35.5 -17t-16 -42t-4 -53v-53h-207v47q0 122 80 211q78 88 198 88q102 0 176 -73q76 -74 76 -181v-688q0 -109 14 -195h-202q-19 22 -19 90h-14q-39 -67 -107 -95q-28 -11 -53.5 -11 t-54.5 10t-54 40q-63 72 -63 226zM252 299.5q0 -71.5 19.5 -92.5t46 -21t52 19.5t25.5 48.5v287q-76 -33 -109.5 -101.5t-33.5 -140zM267 1305l106 184h215l-162 -184h-159z" />
<glyph unicode="&#xe2;" horiz-adv-x="681" d="M49 260q0 235 166 352q43 31 82 51.5t65.5 36t32.5 31.5v123q0 72 -18.5 87t-42 15t-35.5 -17t-16 -42t-4 -53v-53h-207v47q0 122 80 211q78 88 198 88q102 0 176 -73q76 -74 76 -181v-688q0 -109 14 -195h-202q-19 22 -19 90h-14q-39 -67 -107 -95q-28 -11 -53.5 -11 t-54.5 10t-54 40q-63 72 -63 226zM92 1305l141 184h220l141 -184h-189l-63 71l-61 -71h-189zM252 299.5q0 -71.5 19.5 -92.5t46 -21t52 19.5t25.5 48.5v287q-76 -33 -109.5 -101.5t-33.5 -140z" />
<glyph unicode="&#xe3;" horiz-adv-x="681" d="M49 260q0 235 166 352q43 31 82 51.5t65.5 36t32.5 31.5v123q0 72 -18.5 87t-42 15t-35.5 -17t-16 -42t-4 -53v-53h-207v47q0 122 80 211q78 88 198 88q102 0 176 -73q76 -74 76 -181v-688q0 -109 14 -195h-202q-19 22 -19 90h-14q-39 -67 -107 -95q-28 -11 -53.5 -11 t-54.5 10t-54 40q-63 72 -63 226zM145 1305v151q55 39 105.5 39t93.5 -17.5t90 -19.5t109 31v-152q-45 -39 -100.5 -39t-97.5 18.5t-91 19.5t-109 -31zM252 299.5q0 -71.5 19.5 -92.5t46 -21t52 19.5t25.5 48.5v287q-76 -33 -109.5 -101.5t-33.5 -140z" />
<glyph unicode="&#xe4;" horiz-adv-x="681" d="M49 260q0 235 166 352q43 31 82 51.5t65.5 36t32.5 31.5v123q0 72 -18.5 87t-42 15t-35.5 -17t-16 -42t-4 -53v-53h-207v47q0 122 80 211q78 88 198 88q102 0 176 -73q76 -74 76 -181v-688q0 -109 14 -195h-202q-19 22 -19 90h-14q-39 -67 -107 -95q-28 -11 -53.5 -11 t-54.5 10t-54 40q-63 72 -63 226zM104 1305v200h191v-200h-191zM252 299.5q0 -71.5 19.5 -92.5t46 -21t52 19.5t25.5 48.5v287q-76 -33 -109.5 -101.5t-33.5 -140zM393 1305v200h191v-200h-191z" />
<glyph unicode="&#xe5;" horiz-adv-x="681" d="M49 260q0 235 166 352q43 31 82 51.5t65.5 36t32.5 31.5v123q0 72 -18.5 87t-42 15t-35.5 -17t-16 -42t-4 -53v-53h-207v47q0 122 80 211q78 88 198 88q102 0 176 -73q76 -74 76 -181v-688q0 -109 14 -195h-202q-19 22 -19 90h-14q-39 -67 -107 -95q-28 -11 -53.5 -11 t-54.5 10t-54 40q-63 72 -63 226zM190 1421q0 63 45.5 103.5t108.5 40.5t107.5 -40t44.5 -104q0 -63 -44.5 -103t-107.5 -40t-108.5 40t-45.5 103zM252 299.5q0 -71.5 19.5 -92.5t46 -21t52 19.5t25.5 48.5v287q-76 -33 -109.5 -101.5t-33.5 -140zM268 1421q0 -29 23.5 -50 t52.5 -21t52.5 21.5t23.5 49.5q0 29 -23.5 50.5t-52.5 21.5t-52.5 -21.5t-23.5 -50.5z" />
<glyph unicode="&#xe6;" horiz-adv-x="989" d="M49 263q0 91 24.5 158.5t61.5 114t80 77t82 51t65.5 36t32.5 31.5v123q0 72 -18.5 87t-42 15t-35.5 -17t-16 -42t-4 -53v-53h-207v47q0 122 80 211q78 88 198 88q84 0 152 -52q66 52 164 52t152 -47q104 -89 112 -242v-326h-342v-243q7 -113 76 -113q73 0 73 113v122h193 v-129q-8 -157 -113 -243q-55 -45 -155 -45q-158 0 -226 131q-102 -131 -221 -131q-102 0 -147 134q-19 54 -19 145zM252 299.5q0 -71.5 19.5 -92.5t46 -21t52 19.5t25.5 48.5v287q-76 -33 -109.5 -101.5t-33.5 -140zM588 684h149v158q0 65 -22.5 89.5t-50.5 24.5 q-69 0 -76 -114v-158z" />
<glyph unicode="&#xe7;" horiz-adv-x="645" d="M66 315v490q0 332 264 332q136 0 198 -68q68 -76 68 -254v-88h-207v135q0 51 -12 70.5t-50 19.5t-46.5 -29.5t-8.5 -60.5v-604q0 -31 8.5 -60.5t46.5 -29.5t50 19.5t12 70.5v156h207v-109q0 -260 -152 -306q-49 -15 -109 -15t-109.5 16t-84.5 55q-75 84 -75 260z M240 -111h172v-141l-45 -133h-104l40 133h-63v141z" />
<glyph unicode="&#xe8;" horiz-adv-x="659" d="M66 279v563q8 158 113 248q54 47 155 47q100 0 154 -47q104 -88 112 -242v-326h-342v-243q7 -113 76 -113q71 0 74 113v122h192v-129q-8 -157 -113 -243q-55 -45 -155 -45t-154 46q-106 89 -112 249zM105 1489h215l106 -184h-159zM258 684h150v158q0 64 -23 89t-51 25 q-69 0 -76 -114v-158z" />
<glyph unicode="&#xe9;" horiz-adv-x="659" d="M66 279v563q8 158 113 248q54 47 155 47q100 0 154 -47q104 -88 112 -242v-326h-342v-243q7 -113 76 -113q71 0 74 113v122h192v-129q-8 -157 -113 -243q-55 -45 -155 -45t-154 46q-106 89 -112 249zM258 684h150v158q0 64 -23 89t-51 25q-69 0 -76 -114v-158zM267 1305 l106 184h215l-162 -184h-159z" />
<glyph unicode="&#xea;" horiz-adv-x="659" d="M66 279v563q8 158 113 248q54 47 155 47q100 0 154 -47q104 -88 112 -242v-326h-342v-243q7 -113 76 -113q71 0 74 113v122h192v-129q-8 -157 -113 -243q-55 -45 -155 -45t-154 46q-106 89 -112 249zM82 1305l141 184h220l141 -184h-189l-63 71l-61 -71h-189zM258 684 h150v158q0 64 -23 89t-51 25q-69 0 -76 -114v-158z" />
<glyph unicode="&#xeb;" horiz-adv-x="659" d="M66 279v563q8 158 113 248q54 47 155 47q100 0 154 -47q104 -88 112 -242v-326h-342v-243q7 -113 76 -113q71 0 74 113v122h192v-129q-8 -157 -113 -243q-55 -45 -155 -45t-154 46q-106 89 -112 249zM92 1305v200h191v-200h-191zM258 684h150v158q0 64 -23 89t-51 25 q-69 0 -76 -114v-158zM381 1305v200h191v-200h-191z" />
<glyph unicode="&#xec;" horiz-adv-x="370" d="M-33 1489h215l107 -184h-160zM82 0v1120h207v-1120h-207z" />
<glyph unicode="&#xed;" horiz-adv-x="370" d="M82 0v1120h207v-1120h-207zM82 1305l106 184h215l-161 -184h-160z" />
<glyph unicode="&#xee;" horiz-adv-x="370" d="M-66 1305l142 184h219l141 -184h-188l-64 71l-61 -71h-189zM82 0v1120h207v-1120h-207z" />
<glyph unicode="&#xef;" horiz-adv-x="372" d="M-53 1305v200h190v-200h-190zM82 0v1120h207v-1120h-207zM236 1305v200h190v-200h-190z" />
<glyph unicode="&#xf0;" horiz-adv-x="673" d="M76 279v579q0 164 70 241q34 38 85.5 38t91 -21.5t80.5 -56.5q-15 121 -51 203l-82 -72l-55 63l100 88q-20 32 -30 45t-15 21l109 100l53 -61l94 82l56 -66l-101 -88q125 -197 125 -446v-656q-8 -156 -112 -243q-54 -45 -154 -45t-154 46q-102 88 -110 249zM270 279 q-4 -64 18.5 -88.5t51.5 -24.5q48 0 66 55q8 25 6 58v563q4 63 -19.5 88.5t-52.5 25.5q-47 0 -64 -57q-8 -25 -6 -57v-563z" />
<glyph unicode="&#xf1;" horiz-adv-x="690" d="M82 0v1120h207v-94q6 4 23.5 21.5t39.5 38.5q57 51 101.5 51t74 -21.5t48.5 -53.5q36 -63 36 -144v-918h-206v887q0 33 -16 41t-34 8q-37 0 -67 -53v-883h-207zM149 1305v151q55 39 105.5 39t93.5 -17.5t90 -19.5t109 31v-152q-45 -39 -100.5 -39t-97.5 18.5t-91 19.5 t-109 -31z" />
<glyph unicode="&#xf2;" horiz-adv-x="657" d="M63 279v563q8 158 111 248q53 47 154 47q100 0 154 -47q104 -88 112 -242v-576q-8 -156 -112 -243q-54 -45 -154 -45t-154 46q-103 89 -111 249zM100 1489h215l106 -184h-159zM258 279q-4 -64 18.5 -88.5t51.5 -24.5q50 0 65 55q8 25 6 58v563q4 63 -19.5 88.5 t-51.5 25.5q-49 0 -64 -57q-8 -25 -6 -57v-563z" />
<glyph unicode="&#xf3;" horiz-adv-x="657" d="M63 279v563q8 158 111 248q53 47 154 47q100 0 154 -47q104 -88 112 -242v-576q-8 -156 -112 -243q-54 -45 -154 -45t-154 46q-103 89 -111 249zM258 279q-4 -64 18.5 -88.5t51.5 -24.5q50 0 65 55q8 25 6 58v563q4 63 -19.5 88.5t-51.5 25.5q-49 0 -64 -57 q-8 -25 -6 -57v-563zM263 1305l106 184h215l-162 -184h-159z" />
<glyph unicode="&#xf4;" horiz-adv-x="657" d="M63 279v563q8 158 111 248q53 47 154 47q100 0 154 -47q104 -88 112 -242v-576q-8 -156 -112 -243q-54 -45 -154 -45t-154 46q-103 89 -111 249zM80 1305l141 184h220l141 -184h-189l-63 71l-61 -71h-189zM258 279q-4 -64 18.5 -88.5t51.5 -24.5q50 0 65 55q8 25 6 58 v563q4 63 -19.5 88.5t-51.5 25.5q-49 0 -64 -57q-8 -25 -6 -57v-563z" />
<glyph unicode="&#xf5;" horiz-adv-x="657" d="M63 279v563q8 158 111 248q53 47 154 47q100 0 154 -47q104 -88 112 -242v-576q-8 -156 -112 -243q-54 -45 -154 -45t-154 46q-103 89 -111 249zM133 1305v151q55 39 105.5 39t93.5 -17.5t90 -19.5t109 31v-152q-45 -39 -100.5 -39t-97.5 18.5t-91 19.5t-109 -31z M258 279q-4 -64 18.5 -88.5t51.5 -24.5q50 0 65 55q8 25 6 58v563q4 63 -19.5 88.5t-51.5 25.5q-49 0 -64 -57q-8 -25 -6 -57v-563z" />
<glyph unicode="&#xf6;" horiz-adv-x="657" d="M63 279v563q8 158 111 248q53 47 154 47q100 0 154 -47q104 -88 112 -242v-576q-8 -156 -112 -243q-54 -45 -154 -45t-154 46q-103 89 -111 249zM92 1305v200h191v-200h-191zM258 279q-4 -64 18.5 -88.5t51.5 -24.5q50 0 65 55q8 25 6 58v563q4 63 -19.5 88.5t-51.5 25.5 q-49 0 -64 -57q-8 -25 -6 -57v-563zM381 1305v200h191v-200h-191z" />
<glyph unicode="&#xf8;" horiz-adv-x="657" d="M63 279v563q8 158 111 248q53 47 154 47q54 0 106 -19l21 80h75l-30 -121q52 -49 82 -145q10 -41 12 -84v-576q-8 -156 -112 -243q-54 -45 -132.5 -45t-124.5 16l-20 -78h-80l31 121q-90 85 -93 236zM258 436l125 486q-17 34 -51 34q-53 0 -68 -57q-8 -25 -6 -57v-406z M274 197q17 -31 50 -31q54 0 69 55q8 25 6 58v403z" />
<glyph unicode="&#xf9;" horiz-adv-x="690" d="M78 203v917h207v-887q0 -33 15.5 -41t32.5 -8q23 0 50 27q10 10 18 27v882h207v-1120h-207v94q-6 -4 -23.5 -21.5t-39.5 -38.5q-56 -50 -101 -50t-74.5 21.5t-48.5 52.5q-36 63 -36 145zM115 1489h215l106 -184h-159z" />
<glyph unicode="&#xfa;" horiz-adv-x="690" d="M78 203v917h207v-887q0 -33 15.5 -41t32.5 -8q23 0 50 27q10 10 18 27v882h207v-1120h-207v94q-6 -4 -23.5 -21.5t-39.5 -38.5q-56 -50 -101 -50t-74.5 21.5t-48.5 52.5q-36 63 -36 145zM240 1305l106 184h215l-162 -184h-159z" />
<glyph unicode="&#xfb;" horiz-adv-x="690" d="M78 203v917h207v-887q0 -33 15.5 -41t32.5 -8q23 0 50 27q10 10 18 27v882h207v-1120h-207v94q-6 -4 -23.5 -21.5t-39.5 -38.5q-56 -50 -101 -50t-74.5 21.5t-48.5 52.5q-36 63 -36 145zM96 1305l141 184h220l141 -184h-189l-63 71l-61 -71h-189z" />
<glyph unicode="&#xfc;" horiz-adv-x="690" d="M78 203v917h207v-887q0 -33 15.5 -41t32.5 -8q23 0 50 27q10 10 18 27v882h207v-1120h-207v94q-6 -4 -23.5 -21.5t-39.5 -38.5q-56 -50 -101 -50t-74.5 21.5t-48.5 52.5q-36 63 -36 145zM108 1305v200h191v-200h-191zM397 1305v200h191v-200h-191z" />
<glyph unicode="&#xfd;" horiz-adv-x="634" d="M25 1120h202l82 -688l4 -57h9l4 57l82 688h202l-198 -1204q-17 -127 -90 -217q-82 -100 -197 -100h-25q-14 0 -31 1t-36 3v184q8 -4 45 -3t61.5 19.5t40.5 44.5q35 53 35 119zM234 1305l106 184h215l-162 -184h-159z" />
<glyph unicode="&#xfe;" horiz-adv-x="686" d="M82 -385v1890h207v-458q97 90 164 90q76 0 121 -75q38 -62 38 -144v-715q0 -134 -86 -197q-30 -22 -73 -22q-70 0 -164 90v-459h-207zM289 246q0 -25 19.5 -46.5t41.5 -21.5q23 0 39.5 19.5t16.5 48.5v628q0 29 -16.5 48.5t-39.5 19.5t-42 -19.5t-19 -48.5v-628z" />
<glyph unicode="&#xff;" horiz-adv-x="634" d="M25 1120h202l82 -688l4 -57h9l4 57l82 688h202l-198 -1204q-17 -127 -90 -217q-82 -100 -197 -100h-25q-14 0 -31 1t-36 3v184q8 -4 45 -3t61.5 19.5t40.5 44.5q35 53 35 119zM79 1305v200h191v-200h-191zM368 1305v200h191v-200h-191z" />
<glyph unicode="&#x152;" horiz-adv-x="983" d="M68 309v887q6 123 71 212q72 97 223 97h580v-227h-285v-395h205v-242h-205v-414h285v-227h-580q-150 0 -222 98q-21 27 -45 75.5t-27 135.5zM289 309q0 -110 73 -110q74 0 74 110v901q0 57 -36 86q-15 11 -41 11q-46 0 -62 -56q-8 -25 -8 -55v-887z" />
<glyph unicode="&#x153;" horiz-adv-x="995" d="M63 279v563q8 158 111 248q53 47 157.5 47t168.5 -60q64 60 167 60t157 -47q104 -88 112 -242v-326h-342v-250q0 -58 36 -92q15 -14 40 -14q73 0 73 113v122h193v-129q-8 -157 -113 -243q-55 -45 -160.5 -45t-164.5 57q-66 -57 -168 -57t-156 46q-103 89 -111 249z M258 279q-4 -64 18.5 -88.5t51.5 -24.5q50 0 65 55q8 25 6 58v563q4 63 -19.5 88.5t-51.5 25.5q-49 0 -64 -57q-8 -25 -6 -57v-563zM594 684h149v158q0 65 -22.5 89.5t-49 24.5t-42 -14t-23.5 -32q-12 -28 -12 -62v-164z" />
<glyph unicode="&#x178;" horiz-adv-x="704" d="M16 1505h217l111 -481l6 -55h4l6 55l111 481h217l-225 -864v-641h-221v641zM114 1639v200h191v-200h-191zM403 1639v200h191v-200h-191z" />
<glyph unicode="&#x2c6;" horiz-adv-x="1021" d="M260 1305l141 184h220l141 -184h-189l-63 71l-61 -71h-189z" />
<glyph unicode="&#x2dc;" horiz-adv-x="1024" d="M313 1305v151q55 39 105.5 39t93.5 -17.5t90 -19.5t109 31v-152q-45 -39 -100.5 -39t-97.5 18.5t-91 19.5t-109 -31z" />
<glyph unicode="&#x2000;" horiz-adv-x="952" />
<glyph unicode="&#x2001;" horiz-adv-x="1905" />
<glyph unicode="&#x2002;" horiz-adv-x="952" />
<glyph unicode="&#x2003;" horiz-adv-x="1905" />
<glyph unicode="&#x2004;" horiz-adv-x="635" />
<glyph unicode="&#x2005;" horiz-adv-x="476" />
<glyph unicode="&#x2006;" horiz-adv-x="317" />
<glyph unicode="&#x2007;" horiz-adv-x="317" />
<glyph unicode="&#x2008;" horiz-adv-x="238" />
<glyph unicode="&#x2009;" horiz-adv-x="381" />
<glyph unicode="&#x200a;" horiz-adv-x="105" />
<glyph unicode="&#x2010;" horiz-adv-x="444" d="M74 455v194h297v-194h-297z" />
<glyph unicode="&#x2011;" horiz-adv-x="444" d="M74 455v194h297v-194h-297z" />
<glyph unicode="&#x2012;" horiz-adv-x="444" d="M74 455v194h297v-194h-297z" />
<glyph unicode="&#x2013;" horiz-adv-x="806" d="M74 649v195h659v-195h-659z" />
<glyph unicode="&#x2014;" horiz-adv-x="972" d="M74 649v195h825v-195h-825z" />
<glyph unicode="&#x2018;" horiz-adv-x="309" d="M49 1012v227l113 266h102l-71 -266h71v-227h-215z" />
<glyph unicode="&#x2019;" horiz-adv-x="309" d="M45 1012l72 266h-72v227h215v-227l-113 -266h-102z" />
<glyph unicode="&#x201a;" horiz-adv-x="309" d="M45 0v227h215v-227l-113 -266h-102l72 266h-72z" />
<glyph unicode="&#x201c;" horiz-adv-x="624" d="M53 1012v227l113 266h102l-71 -266h71v-227h-215zM356 1012v227l113 266h102l-71 -266h71v-227h-215z" />
<glyph unicode="&#x201d;" horiz-adv-x="624" d="M53 1012l72 266h-72v227h215v-227l-112 -266h-103zM356 1012l72 266h-72v227h215v-227l-112 -266h-103z" />
<glyph unicode="&#x201e;" horiz-adv-x="624" d="M53 0v227h215v-227l-112 -266h-103l72 266h-72zM356 0v227h215v-227l-112 -266h-103l72 266h-72z" />
<glyph unicode="&#x2022;" horiz-adv-x="663" d="M82 816q0 52 19.5 97t52.5 79q72 73 180 73q102 0 175 -73t73 -175q0 -106 -73 -179t-175 -73q-108 0 -180 73q-72 74 -72 178z" />
<glyph unicode="&#x2026;" horiz-adv-x="964" d="M53 0v227h215v-227h-215zM375 0v227h215v-227h-215zM696 0v227h215v-227h-215z" />
<glyph unicode="&#x202f;" horiz-adv-x="381" />
<glyph unicode="&#x205f;" horiz-adv-x="476" />
<glyph unicode="&#x20ac;" horiz-adv-x="813" d="M53 547v137h107v137h-107v137h107v238q6 128 72 222q71 104 223 104q179 0 258 -164q33 -72 37 -162v-84h-207v84q0 58 -24.5 84.5t-56.5 26.5q-50 0 -71 -56q-8 -25 -10 -55v-238h233v-137h-233v-137h233v-137h-233v-238q7 -110 78 -110q54 0 76 55q8 23 8 55v84h207 v-84q-8 -185 -126 -275q-64 -50 -169 -50q-151 0 -223 102q-66 93 -72 223v238h-107z" />
<glyph unicode="&#x2122;" horiz-adv-x="937" d="M74 1401v104h321v-104h-104v-580h-113v580h-104zM440 821v684h138l67 -319h6l68 319h137v-684h-104v449l-78 -449h-51l-80 449v-449h-103z" />
<glyph unicode="&#xe000;" horiz-adv-x="1116" d="M0 0v1116h1116v-1116h-1116z" />
</font>
</defs>
</svg>
